<svg xmlns="http://www.w3.org/2000/svg" xmlns:xlink="http://www.w3.org/1999/xlink" width="52" height="52" viewBox="0 0 52 52">
    <defs>
        <path id="b" d="M48.505 28.449l-.001.097c-.032 3.086-.154 4.835-.446 6.598-.944 5.549-3.557 9.189-7.972 11.116-2.141.926-4.401 1.422-7.478 1.62-1.566.098-7.036.053-8.6-.07-3.073-.249-5.322-.782-7.443-1.742-4.374-2-6.911-5.681-7.74-11.244-.255-1.769-.34-3.518-.308-6.605l.001-.097c.034-3.025.156-4.756.445-6.501 1.366-8.049 6.257-12.133 15.27-12.728 1.397-.092 7.376-.051 8.78.063 3.073.248 5.322.78 7.443 1.741 4.374 2 6.911 5.681 7.74 11.244.252 1.75.338 3.483.309 6.508z"/>
        <filter id="a" width="135%" height="135.8%" x="-17.5%" y="-12.8%" filterUnits="objectBoundingBox">
            <feOffset dy="2" in="SourceAlpha" result="shadowOffsetOuter1"/>
            <feGaussianBlur in="shadowOffsetOuter1" result="shadowBlurOuter1" stdDeviation="2"/>
            <feColorMatrix in="shadowBlurOuter1" values="0 0 0 0 0.992156863 0 0 0 0 0.6 0 0 0 0 0.376470588 0 0 0 1 0"/>
        </filter>
    </defs>
    <g fill="none" fill-rule="evenodd">
        <g transform="rotate(-45 21.682 31.216)">
            <use fill="#000" filter="url(#a)" xlink:href="#b"/>
            <use fill="#FD9960" xlink:href="#b"/>
        </g>
        <path fill="#FFF" fill-rule="nonzero" d="M24.984 15.083c-2.54 0-4.58 2.021-4.58 4.471 0 2.481 2.07 4.472 4.58 4.472 2.541 0 4.58-2.021 4.58-4.472 0-2.45-2.039-4.47-4.58-4.47zm.345 5.635l-1.035 1.01-1.035-1.01-1.004-.98 1.035-1.01 1.004.98 2.384-2.328 1.036 1.01-2.385 2.328zm8.816-2.42c-.408-.367-.565-.949-.345-1.439l.188-.459c.314-.704-.094-1.5-.847-1.715l-.502-.123a1.286 1.286 0 0 1-.941-1.163v-.521c-.031-.766-.753-1.317-1.506-1.194l-.502.091c-.565.092-1.098-.153-1.349-.643l-.25-.428c-.377-.674-1.256-.858-1.883-.43l-.408.276a1.349 1.349 0 0 1-1.506 0l-.408-.306c-.627-.46-1.537-.245-1.913.429l-.251.429c-.283.49-.816.735-1.38.643l-.503-.092a1.319 1.319 0 0 0-1.537 1.194l-.031.49a1.286 1.286 0 0 1-.942 1.164l-.502.153c-.752.215-1.16 1.011-.847 1.715l.189.46c.22.49.062 1.072-.345 1.44l-.377.336a1.232 1.232 0 0 0 0 1.899l.377.337c.407.367.564.95.345 1.44l-.189.459c-.313.704.095 1.5.847 1.715l.502.122c.534.153.91.613.942 1.164l.031.49c.031.766.753 1.317 1.506 1.194l.502-.092c.565-.091 1.098.154 1.349.644l.25.428c.377.674 1.256.858 1.883.43l.408-.277a1.349 1.349 0 0 1 1.506 0l.408.307c.627.46 1.537.245 1.913-.43l.251-.428c.283-.49.816-.735 1.38-.643l.503.092a1.319 1.319 0 0 0 1.537-1.195l.031-.49c.032-.55.408-1.01.942-1.163l.502-.123c.752-.214 1.16-1.01.847-1.715l-.189-.46c-.22-.49-.062-1.071.345-1.439l.377-.337a1.232 1.232 0 0 0 0-1.898l-.408-.337zm-9.16 7.473c-3.514 0-6.338-2.786-6.338-6.186 0-3.43 2.855-6.186 6.337-6.186 3.514 0 6.338 2.787 6.338 6.186 0 3.4-2.824 6.186-6.338 6.186zm-9.852 10.78l3.075-7.503a3.34 3.34 0 0 0 1.349.307c.188 0 .376-.03.565-.062h.062l.032.062c.533.98 1.631 1.592 2.823 1.592.314 0 .659-.061.941-.153l-3.231 7.932a.31.31 0 0 1-.565.03l-1.537-2.633c-.063-.092-.157-.122-.25-.092l-2.887.888c-.251.092-.47-.153-.377-.367zm14.087 2.267l-3.263-7.963c.314.092.627.154.941.154 1.192 0 2.259-.613 2.824-1.624l.03-.06h.064c.188.03.376.06.564.06.502 0 .942-.122 1.38-.306l3.075 7.565c.094.245-.125.49-.376.398l-2.886-.888c-.095-.031-.189 0-.251.092l-1.538 2.633c-.125.184-.47.153-.564-.06z"/>
    </g>
</svg>
