<svg xmlns="http://www.w3.org/2000/svg" xmlns:xlink="http://www.w3.org/1999/xlink" width="53" height="52" viewBox="0 0 53 52">
    <defs>
        <path id="b" d="M48.505 28.449l-.001.097c-.032 3.086-.154 4.835-.446 6.598-.944 5.549-3.557 9.189-7.972 11.116-2.141.926-4.401 1.422-7.478 1.62-1.566.098-7.036.053-8.6-.07-3.073-.249-5.322-.782-7.443-1.742-4.374-2-6.911-5.681-7.74-11.244-.255-1.769-.34-3.518-.308-6.605l.001-.097c.034-3.025.156-4.756.445-6.501 1.366-8.049 6.257-12.133 15.27-12.728 1.397-.092 7.376-.051 8.78.063 3.073.248 5.322.78 7.443 1.741 4.374 2 6.911 5.681 7.74 11.244.252 1.75.338 3.483.309 6.508z"/>
        <filter id="a" width="135%" height="135.8%" x="-17.5%" y="-12.8%" filterUnits="objectBoundingBox">
            <feOffset dy="2" in="SourceAlpha" result="shadowOffsetOuter1"/>
            <feGaussianBlur in="shadowOffsetOuter1" result="shadowBlurOuter1" stdDeviation="2"/>
            <feColorMatrix in="shadowBlurOuter1" values="0 0 0 0 0.17254902 0 0 0 0 0.701960784 0 0 0 0 0.674509804 0 0 0 1 0"/>
        </filter>
    </defs>
    <g fill="none" fill-rule="evenodd">
        <g transform="rotate(-44 22.06 30.1)">
            <use fill="#000" filter="url(#a)" xlink:href="#b"/>
            <use fill="#2CB3AC" xlink:href="#b"/>
        </g>
        <g fill="#FFF">
            <path d="M23.336 16.027l2.164-1.558 2.164 1.558-.827-2.522 2.165-1.56h-2.676L25.5 9.423l-.827 2.522h-2.675l2.165 1.56zM15.083 19.345l2.164-1.558 2.164 1.557-.826-2.521 2.163-1.56h-2.674l-.827-2.522-.827 2.522h-2.675l2.164 1.56zM31.589 19.345l2.164-1.558 2.164 1.557-.826-2.521 2.164-1.56h-2.676l-.826-2.522-.827 2.522h-2.674l2.163 1.56zM25.5 28.909c3.075 0 5.577-2.481 5.577-5.53 0-3.05-2.502-5.53-5.577-5.53s-5.577 2.48-5.577 5.53c0 3.049 2.502 5.53 5.577 5.53zM16.354 24.515l2.164-1.56h-2.675l-.827-2.522-.827 2.523h-2.675l2.164 1.56-.825 2.521 2.164-1.557 2.163 1.556zM39.486 22.644H36.81l-.827-2.523-.826 2.523h-2.675l2.164 1.56-.826 2.52 2.163-1.556 2.164 1.555-.825-2.52zM25.5 30.015c-6.586 0-8.923 2.978-8.923 5.53v1.106h17.846v-1.106c0-2.552-2.337-5.53-8.923-5.53z"/>
        </g>
    </g>
</svg>
