<svg xmlns="http://www.w3.org/2000/svg" xmlns:xlink="http://www.w3.org/1999/xlink" width="59" height="59" viewBox="0 0 59 59">
    <defs>
        <path id="b" d="M48.505 28.449l-.001.097c-.032 3.086-.154 4.835-.446 6.598-.944 5.549-3.557 9.189-7.972 11.116-2.141.926-4.401 1.422-7.478 1.62-1.566.098-7.036.053-8.6-.07-3.073-.249-5.322-.782-7.443-1.742-4.374-2-6.911-5.681-7.74-11.244-.255-1.769-.34-3.518-.308-6.605l.001-.097c.034-3.025.156-4.756.445-6.501 1.366-8.049 6.257-12.133 15.27-12.728 1.397-.092 7.376-.051 8.78.063 3.073.248 5.322.78 7.443 1.741 4.374 2 6.911 5.681 7.74 11.244.252 1.75.338 3.483.309 6.508z"/>
        <filter id="a" width="165%" height="166.5%" x="-32.5%" y="-28.1%" filterUnits="objectBoundingBox">
            <feOffset dy="2" in="SourceAlpha" result="shadowOffsetOuter1"/>
            <feGaussianBlur in="shadowOffsetOuter1" result="shadowBlurOuter1" stdDeviation="4"/>
            <feColorMatrix in="shadowBlurOuter1" values="0 0 0 0 0.785262543 0 0 0 0 0.164479412 0 0 0 0 0.383822785 0 0 0 1 0"/>
        </filter>
    </defs>
    <g fill="none" fill-rule="evenodd">
        <g transform="rotate(-45 28.01 29.595)">
            <use fill="#000" filter="url(#a)" xlink:href="#b"/>
            <use fill="#E65085" xlink:href="#b"/>
        </g>
        <g fill="#FFF">
            <path fill-rule="nonzero" d="M34.58 15H20.833a1.4 1.4 0 0 0-1.42 1.425v1.553h1.42V16.71H34.58v18.09H20.834v-2.425h-1.42v6.144c0 .786.6 1.48 1.42 1.48H34.58C35.4 40 36 39.424 36 38.638V16.363c0-.787-.6-1.363-1.42-1.363zm-7.11 23.676c-.728 0-1.316-.565-1.316-1.26 0-.699.588-1.264 1.316-1.264.726 0 1.315.565 1.315 1.263 0 .696-.59 1.261-1.315 1.261z"/>
            <path d="M19.28 25.714h6.821v4.541H19.28zM23.679 19.678h8.398v4.954h-8.398zM17.535 19.265h4.298v5.366h-4.298z"/>
        </g>
    </g>
</svg>
